<svg width="32" height="31" viewBox="0 0 32 31" fill="none" xmlns="http://www.w3.org/2000/svg">
<path d="M26.4348 8.51857C26.4348 8.51857 28 10.2639 28 15.5V29.9998H24.3478V16.037C24.3478 11.4722 26.4348 8.51857 26.4348 8.51857C25.0433 7.22111 20.6957 5.29639 20.6957 5.29639C17.7854 7.44451 14.2146 7.44451 11.3043 5.29639C11.3043 5.29639 6.9567 7.22111 5.56522 8.51857C5.56522 8.51857 7.65217 11.4722 7.65217 16.037V29.9998H4V15.5C4 10.2639 5.56522 8.51857 5.56522 8.51857" stroke="#2E2E2E" stroke-width="2" stroke-linecap="round" stroke-linejoin="round"/>
<path d="M11.3043 5.29639C11.6367 7.76136 13.6386 9.59264 16 9.59264C18.3614 9.59264 20.3633 7.76136 20.6956 5.29639" stroke="#2E2E2E" stroke-width="2" stroke-linecap="round" stroke-linejoin="round"/>
<path d="M26.4348 1V5.83328" stroke="#2E2E2E" stroke-width="2" stroke-linecap="round" stroke-linejoin="round"/>
<path d="M5.56519 1V5.83328" stroke="#2E2E2E" stroke-width="2" stroke-linecap="round" stroke-linejoin="round"/>
<path d="M23.3043 1.53674L24.3478 2.61081L23.3043 3.68487" stroke="#2E2E2E" stroke-width="2" stroke-linecap="round" stroke-linejoin="round"/>
<path d="M8.69558 1.53674L7.6521 2.61081L8.69558 3.68487" stroke="#2E2E2E" stroke-width="2" stroke-linecap="round" stroke-linejoin="round"/>
<path d="M24.3478 2.61092H7.6521" stroke="#2E2E2E" stroke-width="2" stroke-linecap="round" stroke-linejoin="round"/>
<path d="M7.5 28.2685H24.1957" stroke="#2E2E2E" stroke-width="1.5" stroke-linecap="round" stroke-linejoin="round"/>
</svg>
