<svg width="31" height="31" viewBox="0 0 31 31" fill="none" xmlns="http://www.w3.org/2000/svg">
<path d="M25.9348 8.51857C25.9348 8.51857 27.5 10.2639 27.5 15.5V29.9998H23.8478V16.037C23.8478 11.4722 25.9348 8.51857 25.9348 8.51857C24.5433 7.22111 20.1957 5.29639 20.1957 5.29639C17.2854 7.44451 13.7146 7.44451 10.8043 5.29639C10.8043 5.29639 6.4567 7.22111 5.06522 8.51857C5.06522 8.51857 7.15217 11.4722 7.15217 16.037V29.9998H3.5V15.5C3.5 10.2639 5.06522 8.51857 5.06522 8.51857" stroke="white" stroke-width="2" stroke-linecap="round" stroke-linejoin="round"/>
<path d="M10.8043 5.29639C11.1367 7.76136 13.1386 9.59264 15.5 9.59264C17.8614 9.59264 19.8633 7.76136 20.1956 5.29639" stroke="white" stroke-width="2" stroke-linecap="round" stroke-linejoin="round"/>
<path d="M25.9348 1V5.83328" stroke="white" stroke-width="2" stroke-linecap="round" stroke-linejoin="round"/>
<path d="M5.06519 1V5.83328" stroke="white" stroke-width="2" stroke-linecap="round" stroke-linejoin="round"/>
<path d="M22.8043 1.53662L23.8478 2.61068L22.8043 3.68475" stroke="white" stroke-width="2" stroke-linecap="round" stroke-linejoin="round"/>
<path d="M8.19558 1.53662L7.1521 2.61068L8.19558 3.68475" stroke="white" stroke-width="2" stroke-linecap="round" stroke-linejoin="round"/>
<path d="M23.8478 2.6108H7.1521" stroke="white" stroke-width="2" stroke-linecap="round" stroke-linejoin="round"/>
<path d="M7 28.2685H23.6957" stroke="white" stroke-width="1.5" stroke-linecap="round" stroke-linejoin="round"/>
</svg>
