<svg width="32" height="31" viewBox="0 0 32 31" fill="none" xmlns="http://www.w3.org/2000/svg">
<path d="M10.2917 9.04183C10.2917 6.02728 12.7355 3.5835 15.75 3.5835C18.7645 3.5835 21.2083 6.02728 21.2083 9.04183C21.2083 12.0564 18.7645 14.5002 15.75 14.5002C12.7355 14.5002 10.2917 12.0564 10.2917 9.04183ZM5.125 27.1252C5.125 21.2571 9.88197 16.5002 15.75 16.5002C21.6181 16.5002 26.375 21.2571 26.375 27.1252C26.375 27.2863 26.2444 27.4168 26.0833 27.4168H5.41667C5.25558 27.4168 5.125 27.2863 5.125 27.1252Z" stroke="black" stroke-width="2"/>
<path fill-rule="evenodd" clip-rule="evenodd" d="M4.77081 2.58317C4.77081 1.86981 5.34912 1.2915 6.06248 1.2915H9.93748V3.87484H7.35415V7.104H4.77081V2.58317ZM24.1458 3.87484H21.5625V1.2915H25.4375C26.1509 1.2915 26.7291 1.86981 26.7291 2.58317V7.104H24.1458V3.87484ZM7.35415 14.2082V10.979H4.77081V15.4998C4.77081 16.2132 5.34912 16.7915 6.06248 16.7915H9.93748V14.2082H7.35415ZM24.1458 14.2082V10.979H26.7291V15.4998C26.7291 16.2132 26.1509 16.7915 25.4375 16.7915H21.5625V14.2082H24.1458Z" fill="black"/>
<path d="M4.96735 26.2768H26.5326" stroke="black" stroke-width="0.5" stroke-linecap="round" stroke-linejoin="round"/>
</svg>
