<svg width="32" height="31" viewBox="0 0 32 31" fill="none" xmlns="http://www.w3.org/2000/svg">
<path d="M10.2917 9.04171C10.2917 6.02716 12.7355 3.58337 15.75 3.58337C18.7645 3.58337 21.2083 6.02716 21.2083 9.04171C21.2083 12.0563 18.7645 14.5 15.75 14.5C12.7355 14.5 10.2917 12.0563 10.2917 9.04171ZM5.125 27.125C5.125 21.257 9.88197 16.5 15.75 16.5C21.6181 16.5 26.375 21.257 26.375 27.125C26.375 27.2861 26.2444 27.4167 26.0833 27.4167H5.41667C5.25558 27.4167 5.125 27.2861 5.125 27.125Z" stroke="white" stroke-width="2"/>
<path fill-rule="evenodd" clip-rule="evenodd" d="M4.77087 2.58329C4.77087 1.86993 5.34918 1.29163 6.06254 1.29163H9.93754V3.87496H7.35421V7.10413H4.77087V2.58329ZM24.1459 3.87496H21.5625V1.29163H25.4375C26.1509 1.29163 26.7292 1.86993 26.7292 2.58329V7.10413H24.1459V3.87496ZM7.35421 14.2083V10.9791H4.77087V15.5C4.77087 16.2133 5.34918 16.7916 6.06254 16.7916H9.93754V14.2083H7.35421ZM24.1459 14.2083V10.9791H26.7292V15.5C26.7292 16.2133 26.1509 16.7916 25.4375 16.7916H21.5625V14.2083H24.1459Z" fill="white"/>
<path d="M4.96741 26.2769H26.5326" stroke="white" stroke-width="0.5" stroke-linecap="round" stroke-linejoin="round"/>
</svg>
