<svg xmlns="http://www.w3.org/2000/svg" width="67" height="64" viewBox="0 0 67 64" fill="none">
<path d="M33.4792 55.9C20.0042 55.9 9.0813 45.2 9.0813 32C9.0813 18.8 20.0042 8.09998 33.4792 8.09998C46.9542 8.09998 57.8771 18.8 57.8771 32C57.8771 45.2 46.9542 55.9 33.4792 55.9ZM33.4792 10.7C21.5355 10.7 11.7355 20.3 11.7355 32C11.7355 43.7 21.5355 53.3 33.4792 53.3C45.423 53.3 55.223 43.7 55.223 32C55.223 20.3 45.423 10.7 33.4792 10.7Z" fill="#9A9999"/>
<path d="M20.5146 30.6H46.4438V33.4H20.5146V30.6Z" fill="#9A9999"/>
<path d="M32.05 19.2999H34.9084V44.6999H32.05V19.2999Z" fill="#9A9999"/>
</svg>